<?xml version="1.0" encoding="utf-8"?>
<!-- Generator: Adobe Illustrator 22.0.1, SVG Export Plug-In . SVG Version: 6.00 Build 0)  -->
<svg version="1.1" id="Layer_1" xmlns="http://www.w3.org/2000/svg" xmlns:xlink="http://www.w3.org/1999/xlink" x="0px" y="0px"
	 viewBox="0 0 223.7 263.7" style="enable-background:new 0 0 223.7 263.7;" xml:space="preserve">
<style type="text/css">
	.st0{fill:#EC7B23;}
</style>
<path class="st0" d="M111.3,28.9c53.4-0.5,97.6,44.1,97.5,97.6c-0.1,53.2-44.3,97.5-98.1,97.1c-53-0.3-97.2-44.3-96.8-98.1
	C14.2,72.7,58,28.5,111.3,28.9z M200.7,126.2C200.2,76.6,160.9,37,111.3,37S22,76.6,22,126.2s39.6,89.3,89.3,89.3
	C160.9,215.5,200.2,175.9,200.7,126.2z"/>
<path class="st0" d="M146.3,153.1c-1.5,3.4-3.1,6.4-4.3,9.6c-0.5,1.4-0.4,3.2-0.1,4.8c0.3,1.6,0.1,2.9-0.8,4.1
	c-4.5,6.2-9.9,11.3-17,14.6c-2.7,1.2-5.5,1.4-8.2,0.3c-1.9-0.8-2.6-1.9-2.3-3.5c0.3-1.8,1.7-3.1,3.5-3.3c0.1,0,0.2,0,0.3,0
	c5.1,0.8,7.6-2.8,10.2-6.1c1.4-1.8,1.6-4.1,1.1-6.2c-1.7-6.3-3.5-12.5-5.3-18.6c-4,0.2-8,0.5-11.9,0.5c-4,0-8-0.3-12.1-0.5
	c-1,0-2,0-2.9,0c-0.2,0.5-0.4,0.7-0.4,1c-0.2,4.1-0.4,8.2-0.6,12.3c-0.1,5,1.5,9.2,5,12.8c1.7,1.7,3.1,3.7,3.6,6.1
	c0.5,3-0.7,5.6-3.1,6.6c-2.8,1.1-5.2-0.4-5.1-3.3c0.1-2.2-0.5-4-2.1-5.5c-5-4.8-7.5-11-9.9-17.2c-0.9-2.3-1.6-4.7-2.5-7.5
	c-0.7,1.3-1.3,2.1-1.7,3.1c-3.3,7.7-6.6,15.4-9.8,23.2c-0.5,1.3-1.1,2.4-2.6,2.9c-0.7,0.2-1.3,1.3-1.8,2c-2.2,3.9-7.2,5.3-11.1,3.1
	c-1.5-0.8-1.8-2.4-0.6-3.7c0.8-0.8,1.9-1.6,3-1.9c3.8-1,5.3-3.4,5.7-7.2c0.7-6.9,1.8-13.7,2.8-20.6c0.4-2.7-0.2-5.1-1.3-7.5
	c-3.2-6.7-5.7-13.6-7.5-20.7c-0.7-2.8-2.1-5.4-3.2-8.1c-0.8-2-1.7-3.9-2.6-5.9c-1.2-3-3.4-4.6-6.6-4.9c-0.8-0.1-1.5-0.3-2.3-0.4
	c-4.8-1-6.3-5.1-6.7-9c-0.2-1.5,0.7-2.5,2-3.3c1.2-0.8,2.4-1.7,3.4-2.7c2.4-2.6,5.2-4.7,8.4-6.2c0.7-0.3,1.3-0.8,2-1.2
	c0-1.8,0-3.4,0-5.8c1.5,1.8,2.6,3.1,4,4.8c1.3-1.9,2.5-3.6,4.1-5.9c0.7,1.5,1.2,2.6,1.6,3.7c1.2,3.8,3.4,6.9,6.2,9.6
	c2,1.9,3.6,4.1,5.5,6.1c1.7,1.8,3.3,3.7,5.1,5.4c3.7,3.3,8.1,5,13.2,4.9c13.7-0.2,27.4-0.3,41.1-0.5c4.4,0,8.7,0.1,13.1-0.1
	c3.5-0.1,7-0.5,10.5-0.9c2.8-0.3,4.6-2,5.3-4.6c1.2-5.2,2.3-10.3,3.1-15.6c0.5-3.6,0.4-7.3,0.6-11c0.2-3.6-1.2-6.9-2.5-10.1
	c-0.4-0.9-1.5-1.6-2.5-2c-1.3-0.6-2.8-0.8-4.1-1.4c-1.1-0.5-2.2-1.3-3.2-2.1c-1-0.9-1.1-2.1-0.5-3.3c0.5-1.2,1.4-2,2.8-1.8
	c8.8,1,16.1,3.9,17.9,14.2c0.8,4.5,1.3,9.2,1.4,13.8c0.2,5.8-0.9,11.6-2.7,17.2c-1.5,4.6-2.9,9.1-4.4,13.7c-1,3-0.7,5.9,1.1,8.6
	c3.1,4.5,3.5,9.5,2.7,14.8s-0.2,10.4,2.1,15.3c1.6,3.2,3.2,6.5,5.1,9.5c1.8,2.9,2,6,1.5,9.2c-0.6,3.9-1.5,7.7-2.4,11.6
	c-0.2,0.9-0.6,1.8-0.9,2.7c-0.8,2-2.3,3.2-4.4,3.4c-1.8,0.2-3.6,0.3-5.4,0.2c-2.3-0.1-3.4-2.6-2-4.5c0.2-0.3,0.4-0.5,0.7-0.7
	c3.2-2.6,4-6.2,4.5-10c0.2-1.8-0.6-3-2.3-3.9c-3.1-1.7-6.2-3.3-9.1-5.2c-3.7-2.4-7.2-5.3-10-8.8
	C147.2,154.3,146.8,153.8,146.3,153.1z"/>
<path class="st0" d="M97.8,83.8c-0.7-6.1,0.6-11.6,4.7-16.3c1.6-1.9,3.5-3.5,5.2-5.3c2.9-3,5.6-6.1,8.5-8.9c1.6-1.5,3.5-2.7,5.5-3.7
	c1.9-1,4-1.3,6.2-0.8c9.3,2.2,13.2,13.6,6.7,21c-5.3,6.1-11.3,11.7-17.1,17.4c-3.3,3.2-7.6,4.1-12.2,3.3c-1.2-0.2-2.1-0.1-3,0.8
	c-2.4,2.3-4.9,4.6-7.3,6.8c-1.3,1.2-2.6,2.5-4.4,2.9c-3.2-1.7-3.6-3.1-1.7-5.9c0.5-0.7,1.1-1.3,1.7-2c2.4-2.9,4.8-5.7,7.2-8.5
	C97.8,84.3,97.8,84,97.8,83.8z M94.1,96c2.3-2.1,4.6-4.1,6.8-6.3c1.3-1.2,2.5-1.8,4.4-1.3c3.2,0.8,6.1,0,8.7-2
	c4.5-3.6,8.4-7.8,12.4-12.6c-4.2-0.5-7.9-0.8-11.7-1c-3.8-0.3-7.6-0.7-11.4-1c-2,2.1-2.8,4.6-3.2,7.1c-0.1,0.8-0.2,1.6-0.1,2.3
	c0.7,3.3-1,5.7-3.1,7.9c-1.4,1.5-2.7,3.1-4,4.7c-0.6,0.7-1,1.5-1.6,2.3C92.7,97.4,93.4,96.6,94.1,96z"/>
</svg>
