<?xml version="1.0" encoding="utf-8"?>
<!-- Generator: Adobe Illustrator 22.0.1, SVG Export Plug-In . SVG Version: 6.00 Build 0)  -->
<svg version="1.1" id="Layer_1" xmlns="http://www.w3.org/2000/svg" xmlns:xlink="http://www.w3.org/1999/xlink" x="0px" y="0px"
	 viewBox="0 0 223.7 263.7" style="enable-background:new 0 0 223.7 263.7;" xml:space="preserve">
<style type="text/css">
	.st0{fill:#EC7B23;}
</style>
<path class="st0" d="M112.3,222.5c-53,0.4-97.1-44.1-96.8-97.9c0.3-53.1,44.1-97.3,97.6-96.9c52.7,0.3,96.8,44.4,96.3,98.5
	C208.9,178.9,165.4,223,112.3,222.5z M103.7,184.4c-0.2-0.2-0.3-0.3-0.5-0.5c0.1-0.6,0.2-1.2,0.3-1.9c-0.6,0.3-1.3,0.5-2.4,1
	c1,0.4,1.6,0.7,2.1,0.9C103.4,184.1,103.6,184.2,103.7,184.4c0.2,0.1,0.4,0.3,0.5,0.5c0.2,0.2,0.3,0.3,0.5,0.5
	c1.4,2.5,1.5,3.5,0.2,4.7c-1.9,1.8-4,3.3-6.8,3.3c-2,0-4-0.1-6-0.2c-1.7-0.1-3.3-0.2-5-0.2c-5.4,0.1-10.8,0.3-16.2,0.4
	c-2.7,0-4.6-1.8-4.1-4.4c0.4-2.2-0.5-3.5-1.9-4.8c-1.5-1.4-2.5-3.1-2.9-5.1c-0.3-1.3-0.8-2.5-1.3-3.7c-0.6-1.3-1.7-2-3.2-2
	c-2.7,0-5.4-0.4-8,1.2c-1.4,0.9-3.3,1-5,1.3c-1.4,0.3-2.8,0.4-4.2,0.5c20,31.1,68,51,112.6,28.1c46.7-24,62-81.4,36.1-125.1
	c-27-45-84.9-56.8-126.6-28C18.9,81.5,15,136.3,35.7,169.7c2.3-0.8,4.7-1.5,7.3-1.1c0.8,0.1,1.7-0.6,2.5-0.9
	c1.6-0.7,3.1-1.6,4.7-2.2c1.6-0.6,3.3-1.2,5-1.5c4.4-0.9,7.4-3.4,9.8-7c6.5-9.7,15.1-17.3,25.1-23.2c3.7-2.2,7.5-4.3,11.3-6.4
	c1.7-0.9,3.1-2.2,4.4-3.6c2.1-2.3,4.4-4.3,6.6-6.5c0.4-0.4,0.9-0.8,1.2-1.3c1.2-2.1,2.9-3.8,4.8-5.3c0.6-0.5,1.1-1.5,1.2-2.3
	c0.3-2.2,0.3-4.5,0.5-6.7c0.4-3,0.7-6,1.4-8.9c0.6-2.7,0.8-5.1-0.2-7.8c-1.1-2.9-1.4-6.1,0.3-9c1.6-2.8,3.7-5.4,5.6-8
	c0.6-0.8,1.4-1.3,2.4-1c1.7,0.6,3.2-0.3,4.8-0.5c1.5-0.2,3.3,0.9,4.8,0.6c3.5-0.6,6.8,0.2,10.1,0.7c1.7,0.3,3.2,0.8,4.3,2.2
	c2.4,3.2,5.7,3.9,9.6,3.5c3.6-0.3,7.2-0.3,10.7-0.3c2,0,2.8,1,2.9,3c0,0.7,0.1,1.4-0.1,2c-0.9,2.9-1.6,5.8-2.8,8.5
	c-1.2,3-3.5,5-6.7,5.8c-3.5,1-7,2.1-10.5,3.1c-2.1,0.6-3.5,1.9-3.9,4.1c-0.3,1.5-0.5,3-0.5,4.4c0.1,3.8,0.4,7.6,0.5,11.5
	c0,3.6,0.7,6.9,2.3,10.1c1.4,2.7,1.7,5.6,0.9,8.5c-2.3,8.4-6,16-11.3,22.9c-0.5,0.6-0.9,1.4-1.4,2c-0.2,0.2-0.3,0.3-0.5,0.5
	s-0.3,0.3-0.5,0.5s-0.3,0.3-0.5,0.5c-0.5,0.3-1,0.7-1.5,1c-0.3,0.2-0.7,0.3-1,0.5c-0.2,0.2-0.3,0.3-0.5,0.5l-0.1,0.1l0.1-0.1
	c0.2-0.2,0.3-0.3,0.5-0.5c0.3-0.2,0.7-0.3,1-0.5c0.5-0.3,1-0.7,1.5-1c0.2-0.2,0.3-0.3,0.5-0.5s0.3-0.3,0.5-0.5s0.3-0.3,0.5-0.5
	c0.7-0.6,1.5-2.2,2.2-2.8c0.2,0.1,0.4-0.9,0.5-0.8c-0.1,3.6-0.2,9.2-0.5,12.8c-0.2,2.8-0.4,5.6,0.4,8.4c0.4,1.3,1.1,2.2,2.5,2.3
	c2.4,0.1,3.9,1.5,5.5,3.1c1.9,2,0.6,4.6-1.6,4.9c-3.5,0.5-7.1,1.4-10.5-0.4c-0.2-0.2-0.3-0.3-0.5-0.5c-0.7-0.3-1.3-0.7-2-1
	c-0.2-0.2-0.3-0.3-0.5-0.5s-0.3-0.3-0.5-0.5c-0.1-0.9-0.1-1.8-0.2-2.7c-0.3-2.8-0.5-5.5-0.8-8.3c0.1-0.1,0.2-0.3,0-0.1
	c0.1-0.2,0-0.1,0,0.1c0,2.9-0.2,5.9-0.1,8.8c0,0.7,0.7,1.4,1.1,2.2c0.2,0.2,0.3,0.3,0.5,0.5s0.3,0.3,0.5,0.5c0.7,0.3,1.3,0.7,2,1
	c0.2,0.2,0.3,0.3,0.5,0.5c0.4,0.5,0.9,1,1.3,1.6c2.1,2.9,1.6,4.6-1.8,5.7c-0.4,0.1-0.8,0.2-1.2,0.3c-2.1,0.2-4.1,0.3-6.2,0.4
	c-0.7,0-1.5,0-2.2-0.1c-3-0.6-4.9-2.9-4.9-5.9s0-6,0-9.2c-2.6-0.4-2.5-2.2-2.4-4.2c0.1-2.1,0.2-4.2-0.4-6.7c-3.9,3-7.5,5.8-11.1,8.6
	c-0.5,0.3-1,0.7-1.5,1s-1,0.7-1.5,1c-0.3,0.2-0.7,0.3-1,0.5s-0.7,0.3-1,0.5s-0.7,0.3-1,0.5c-0.1,0.1-0.2,0.2-0.4,0.3
	c0.1-0.1,0.2-0.2,0.4-0.3c0.3-0.2,0.7-0.3,1-0.5s0.7-0.3,1-0.5s0.7-0.3,1-0.5c0.5-0.3,1-0.7,1.5-1s1-0.7,1.5-1
	c1.5,0.3,2.8,0.8,3,2.5c0.2,1.6-0.4,3.3-2,4c-2.9,1.2-5.8,2.3-9.1,1.6c-0.2-0.2-0.3-0.3-0.5-0.5C104,184.7,103.9,184.6,103.7,184.4z
	 M137.8,171.1c0.1,0,0.1,0,0.2,0.1c0-2.2,0-4.3,0-6.5c-0.1,0-0.1,0-0.2,0C137.8,166.8,137.8,168.9,137.8,171.1z M99.7,183.2l0.2-0.1
	l-0.2-0.1V183.2z"/>
<path class="st0" d="M101,97.5c2.3,2.7,4.6,5.5,7,8.3c0.5,0.6,1.1,1.2,1.6,1.9c1.9,2.7,1.5,4-1.6,5.7c-1.8-0.3-3-1.6-4.3-2.8
	c-2.4-2.2-4.8-4.4-7.1-6.6c-0.9-0.8-1.8-1-2.9-0.8c-4.4,0.8-8.6-0.1-11.8-3.2c-5.8-5.5-11.6-11-16.8-16.9
	c-6.3-7.2-2.5-18.2,6.5-20.4c2.2-0.5,4.2-0.2,6.1,0.8c1.9,1,3.8,2.2,5.3,3.6c2.9,2.7,5.5,5.8,8.3,8.6c1.7,1.7,3.5,3.3,5.1,5.1
	c4,4.5,5.2,9.9,4.5,15.8C101,96.8,101,97,101,97.5z M107.2,108.6c-0.5-0.8-1-1.6-1.5-2.3c-1.3-1.5-2.5-3.1-3.9-4.5
	c-2.1-2.2-3.7-4.5-3-7.7c0.1-0.7,0-1.5-0.1-2.2c-0.4-2.5-1.1-4.8-3.1-6.9c-3.6,0.3-7.3,0.7-11.1,1c-3.7,0.3-7.3,0.5-11.4,1
	c3.9,4.7,7.7,8.8,12.1,12.3c2.5,2,5.4,2.7,8.4,2c1.8-0.4,3,0.1,4.3,1.3c2.2,2.1,4.4,4.1,6.6,6.1
	C105.2,109.1,105.9,109.8,107.2,108.6z"/>
</svg>
