<?xml version="1.0" encoding="utf-8"?>
<!-- Generator: Adobe Illustrator 22.0.1, SVG Export Plug-In . SVG Version: 6.00 Build 0)  -->
<svg version="1.1" id="Layer_1" xmlns="http://www.w3.org/2000/svg" xmlns:xlink="http://www.w3.org/1999/xlink" x="0px" y="0px"
	 viewBox="0 0 223.7 263.7" style="enable-background:new 0 0 223.7 263.7;" xml:space="preserve">
<style type="text/css">
	.st0{fill:#18234E;}
</style>
<path class="st0" d="M16,124.3c-0.1-53.5,42.7-94.8,92.5-96.6c57.8-2.1,98.9,43.6,100.5,92.6c1.9,57.8-43.7,98.8-92.7,100.5
	C58.3,222.8,15.6,175.7,16,124.3z M123.4,157.6c0.3,6,0.7,11.4,0.9,16.9c0.2,4.5,1.2,9.1-1.6,13.3c-0.9,1.3-1.6,3.1-1.5,4.6
	c0.5,6.2,1.3,12.4,2,18.6c0.2,1.3,0.9,1.8,2.2,1.5c17.8-2.9,33.7-10,46.8-22.2c23.4-21.8,32.8-48.8,28.2-80.5
	c-2.6-17.3-9.9-32.6-21.8-45.4c-21.8-23.4-48.8-33-80.5-28.1c-25.4,3.9-45.3,17.1-59.7,38.3c-12.8,18.8-17.1,39.7-14.3,62.2
	c0.4,3.1,1.2,6.1,1.9,9.7c6.6-5.8,12.6-11.1,18.5-16.2c0-0.2,0,0.1,0,0.4c-0.4,8.6,3.9,14.7,10.9,18.8c14.6,8.7,30.8,11,47.4,11
	c2.1,0,4.4-0.7,4.9-3.1c0.5-2.6,0.6-5.3,0.6-7.9c0-1.6-1-2.1-2.6-2.4c-10.3-1.4-20.6-2.7-30.7-4.6c-7.5-1.4-14.6-4.6-20.7-9.3
	c-4.8-3.7-5.5-8.8-2.3-13.7c1.3-2,2.5-4.1,4-6.5c-1.4,0.1-2.2,0.1-3.6,0.2c4.1-4.9,7.8-9.5,11.6-14c4.2-5.1,8.2-10.1,9.2-17.1
	c0.7-4.6,3.7-8.3,7.5-11.1c3.7-2.7,7.4-5.4,10.9-8.3c3.2-2.7,6.6-3.9,10.8-3.7c5.7,0.3,11.3,0.3,17,0.6c4,0.2,7.9,0.6,11.9,1.1
	c1,0.1,2.1,0.7,2.8,1.5c2.6,2.9,5.3,5.8,7.5,8.9c4.1,5.9,9.5,9.7,16.6,11c9,1.6,17.9,3.6,26.3,7.3c2.4,1.1,2.7,1.7,1.5,4.1
	c-1.8,3.3-3.5,6.6-5.3,9.9c-0.3,0.6-0.9,1.2-1.5,1.6c-2.4,1.6-4.9,3.2-7.4,4.6c-4,2.2-8.2,3.3-12.9,2.5c-2.1-0.4-4.4,0.3-6.6,0.4
	c0,0.3,0,0.6,0,0.9c3.2,1,6.3,2.5,9.6,3c4.9,0.8,7.9,4,10.5,7.7c1.8,2.6,2.9,5.4,2.8,9.1c-2.2-1.4-4.1-2.6-5.8-3.8
	c-0.2,0.1-0.3,0.1-0.4,0.2c-0.6,0.6-1.1,1.2-1.7,1.8c-3.6,3.7-7.7,5.3-12.9,4c-2.9-0.8-5.8-1.6-8.7-2.3s-5.7-1-8.5,0.6
	c-4.6,2.7-5.3,2.6-8.3-0.8c-0.9,1.1-1.9,2.3-2.7,3.6c-0.6,1-1.4,2.1-1.4,3.1c0,1.9-1,2.7-2.5,3.2c-2.7,0.9-5.4,1.7-8.1,2.5
	c-1.6,0.5-2.6,1.1-2.6,3.1c0,2.7-0.4,5.3-0.6,8c-0.2,2.4,0.9,3.6,3.3,2.9c4-1.2,7.9-2.7,12-4.2c0.2,0.9,0.6,2.3,1,4.1
	C125.9,158.7,125,158.3,123.4,157.6z"/>
<path class="st0" d="M78.4,150.7c-0.8,0.5-1.8,1.6-2.5,1.5c-0.9-0.1-1.6-1.2-2.4-1.9c0.8-0.7,1.5-1.9,2.3-2s1.7,0.9,2.6,1.4
	C78.4,150.1,78.4,150.4,78.4,150.7z"/>
<path class="st0" d="M95.1,150.2c0.9,1.5,2,2.4,1.9,3.1c-0.1,0.8-1.5,1.9-2.2,1.8c-0.8-0.1-2-1.3-2.1-2.1
	C92.6,152.4,93.9,151.5,95.1,150.2z"/>
<path class="st0" d="M88.5,151.6c-1.6,1-2.5,2.1-3.3,2c-0.8,0-1.5-1.2-2.2-1.9c0.7-0.7,1.4-1.9,2.2-2
	C85.9,149.7,86.9,150.7,88.5,151.6z"/>
</svg>
