<?xml version="1.0" encoding="utf-8"?>
<!-- Generator: Adobe Illustrator 22.0.1, SVG Export Plug-In . SVG Version: 6.00 Build 0)  -->
<svg version="1.1" id="Layer_1" xmlns="http://www.w3.org/2000/svg" xmlns:xlink="http://www.w3.org/1999/xlink" x="0px" y="0px"
	 viewBox="0 0 223.7 263.7" style="enable-background:new 0 0 223.7 263.7;" xml:space="preserve">
<style type="text/css">
	.st0{fill:#EC7B23;}
</style>
<path class="st0" d="M112.3,28.2c53.2-0.4,97.3,44,97.1,97.5c-0.2,53-44.2,97.2-97.9,96.8c-52.7-0.4-96.9-44.2-96.5-98
	C15.4,71.9,59.1,27.8,112.3,28.2z M201.2,125.3c0.5-48.8-40.1-88.9-88.7-89.1c-49-0.1-89.2,40.2-89.3,88.8
	c-0.1,49,40.2,89.3,89,89.3C161,214.4,201.7,174.1,201.2,125.3z"/>
<path class="st0" d="M121.6,124.9c2.6,2.4,5,4.8,7.5,7.2c4.7,4.4,9.8,8.4,13.6,13.8c3.3,4.8,5.2,10.1,5.7,15.9
	c0.6,7.1-0.7,13.8-2.4,20.6c-0.5,2-1,3.9-1.7,5.8c-1.6,4.6-5.3,7.4-10.3,7.5c-2.9,0.1-5.7,0-8.6,0.1c-4.2,0.1-8.4,0.3-12.6,0.3
	c-6.5,0-13.1-0.2-19.6-0.3c-5.7-0.1-9.9-3.6-11.1-9.2c-1.5-7.3-2.7-14.7-3.1-22.1c-0.3-6.2-0.7-12.4-0.4-18.6
	c0.8-13.9,3.4-27.5,10-39.9c0.8-1.5,1.7-2.9,2.5-4.4c0.6-1.2,1.4-1.7,2.8-1.7c5.9,0.1,11.8,0,17.6,0c2.3,0,4.3,0.9,5.9,2.4
	c4.8,4.3,7,9.6,5.5,16C122.7,120.3,122.2,122.4,121.6,124.9z M136.3,187.3c0.8-2,1.6-4,2.2-6.1c1.3-4.6,1.8-9.4,2.2-14.1
	c0.6-6.6-0.9-12.5-5.1-17.6c-2.6-3.1-5.7-5.9-8.6-8.8c-3-3-6.3-5.8-9.2-8.9c-2.7-2.9-3.9-6.5-3.5-10.4c0.3-2.2,0.8-4.4,1.2-6.7
	c0.5-3.2-0.8-5.5-3.8-6.5c-1.3-0.4-2.6-0.6-3.9-0.7c-2.8-0.1-5.5,0-8.3-0.1c-1.5,0-2.5,0.6-3.3,1.8c-2.4,3.6-4,7.5-5.3,11.6
	c-3.1,10.2-4.2,20.7-4.5,31.3c-0.1,5.3,0,10.6,0.5,15.8c0.5,4.7,1.5,9.4,2.6,14.1c0.4,1.9,1.1,3.9,2.5,5.3
	C106.8,187.3,121.4,187.3,136.3,187.3z"/>
<path class="st0" d="M130.4,55.1c0,5.6,0,10.9,0,16.5c-0.8,0.3-1.6,0.7-2.5,1c-8.2,2.8-12.5,9.2-13.4,17.7c-0.1,1.1-0.2,2.1-0.3,3.1
	c-2.1,0.6-16.9,0.7-20.1,0.2c-0.4-1.8-1-3.7-1.3-5.6c-0.8-5.7-3.5-10-8.3-13c-1.8-1.1-3.4-2.4-5.2-3.8c0.3-0.8,0.5-1.4,0.8-2
	C85,60.2,92.6,55.4,103,55c5.5-0.2,11.1-0.3,16.6-0.4C123.1,54.6,126.6,54.9,130.4,55.1z"/>
<path class="st0" d="M137.1,103.2c-2.7-0.2-4.3-1.6-5.6-3.2c-1-1.2-1.9-2.6-2.6-4c-2.3-4.1-4.9-8-9.8-9.4c1.1-2.1,7.3-8.3,9.5-9.4
	C132.3,85.5,136.2,93.7,137.1,103.2z"/>
<path class="st0" d="M144.1,70.1c-2.6,0.5-5.1,1-7.9,1.6c-0.4-5.6-0.2-10.9-0.1-16.6c2.8,0.3,5.3,0.5,8,0.8
	C144.1,60.6,144.1,65.2,144.1,70.1z"/>
<path class="st0" d="M95.6,181.4c-3.3-12-3-24.2-2.7-36.6c1-0.2,1.8-0.5,2.6-0.6c6.6-0.5,13.2-1.1,19.8-0.2c1,0.1,2,0.1,3,0.1
	c3,0.1,5.5,1.2,7.7,3.2c2.8,2.5,4.8,5.5,6.6,8.8c1.9,3.7,1.7,7.6,1.5,11.6s-0.6,8-1,12c0,0.5-0.2,1-0.3,1.4
	C131,181.7,99.5,181.9,95.6,181.4z"/>
</svg>
